<?xml version="1.0" standalone="no"?>
<!DOCTYPE svg PUBLIC "-//W3C//DTD SVG 20010904//EN"
 "http://www.w3.org/TR/2001/REC-SVG-20010904/DTD/svg10.dtd">
<svg version="1.0" xmlns="http://www.w3.org/2000/svg"
 width="512.000000pt" height="512.000000pt" viewBox="0 0 512.000000 512.000000"
 preserveAspectRatio="xMidYMid meet">
<metadata>
Created by potrace 1.11, written by Peter Selinger 2001-2013
</metadata>
<g transform="translate(0.000000,512.000000) scale(0.100000,-0.100000)"
fill="#000000" stroke="none">
<path d="M2944 3345 c-224 -49 -369 -185 -405 -378 -24 -128 20 -260 119 -355
72 -71 156 -120 292 -173 193 -76 253 -118 266 -184 15 -83 -24 -151 -104
-182 -100 -39 -325 -14 -468 51 l-54 25 -9 -37 c-42 -158 -61 -247 -57 -257 6
-18 179 -72 274 -86 106 -15 326 -6 407 16 105 29 186 74 251 139 71 72 109
145 125 245 23 139 -17 269 -114 369 -69 71 -135 109 -302 177 -159 64 -222
101 -248 143 -39 68 -9 149 71 185 40 18 64 22 152 21 100 -1 143 -10 290 -60
12 -4 23 24 53 129 20 73 37 139 37 144 0 14 -132 58 -214 72 -81 15 -288 12
-362 -4z"/>
<path d="M1931 2798 c4 -577 3 -588 -44 -659 -12 -19 -42 -44 -67 -57 -41 -22
-54 -23 -150 -18 -58 3 -116 7 -130 8 -24 3 -25 1 -44 -135 -16 -117 -17 -140
-5 -147 60 -38 370 -38 473 -1 152 54 237 145 289 306 31 95 37 218 37 732 l0
513 -181 0 -181 0 3 -542z"/>
</g>
</svg>
